<svg width="32" height="33" viewBox="0 0 32 33" fill="none" xmlns="http://www.w3.org/2000/svg">
<g clip-path="url(#clip0_441_1101)">
<path d="M21.875 7.90546C21.719 7.90546 21.615 7.92646 21.51 7.95246V7.96846H21.526C21.599 8.10346 21.719 8.20846 21.812 8.33346C21.885 8.47446 21.947 8.61946 22.015 8.76046L22.036 8.73946C22.161 8.65046 22.224 8.51046 22.224 8.29646C22.172 8.23346 22.161 8.16646 22.115 8.10846C22.063 8.01946 21.948 7.97346 21.875 7.90546ZM7.69298 25.4985H6.45898C6.42161 23.5343 6.30184 21.5726 6.09998 19.6185H6.08998L4.20998 25.4985H3.26698L1.40198 19.6185H1.38598C1.24104 21.5754 1.15434 23.5363 1.12598 25.4985H0.000976562C0.0618927 23.0326 0.244448 20.5713 0.547977 18.1235H2.07898L3.85998 23.5405H3.86998L5.66698 18.1235H7.12498C7.44798 20.8115 7.64098 23.2695 7.69798 25.4985H7.69298ZM13.047 20.0565C12.547 22.7855 11.88 24.7705 11.063 26.0045C10.417 26.9575 9.71398 27.4365 8.94798 27.4365C8.74498 27.4365 8.49498 27.3735 8.19298 27.2485V26.5925C8.34398 26.6135 8.51598 26.6285 8.70898 26.6285C9.06798 26.6285 9.35498 26.5245 9.57398 26.3315C9.83398 26.0915 9.96498 25.8215 9.96498 25.5245C9.96498 25.3165 9.86598 24.8995 9.65798 24.2645L8.30898 20.0565H9.52298L10.492 23.2025C10.711 23.9215 10.805 24.4165 10.763 24.7025C11.299 23.2855 11.669 21.7335 11.878 20.0565H13.047ZM29.484 25.4985H25.974V18.1235H27.156V24.5925H29.484V25.4985ZM25.057 25.6765L23.703 25.0095C23.823 24.9105 23.937 24.8015 24.042 24.6765C24.62 24.0045 24.907 22.9995 24.907 21.6765C24.907 19.2335 23.949 18.0155 22.032 18.0155C21.094 18.0155 20.36 18.3225 19.834 18.9425C19.261 19.6195 18.969 20.6195 18.969 21.9375C18.969 23.2345 19.224 24.1825 19.735 24.7915C20.204 25.3335 20.907 25.6095 21.85 25.6095C22.199 25.6095 22.522 25.5675 22.814 25.4795L24.58 26.5105L25.064 25.6775L25.057 25.6765ZM20.667 24.0195C20.365 23.5405 20.219 22.7695 20.219 21.7065C20.219 19.8475 20.782 18.9205 21.912 18.9205C22.501 18.9205 22.938 19.1445 23.214 19.5875C23.511 20.0715 23.662 20.8325 23.662 21.8845C23.662 23.7545 23.094 24.6975 21.969 24.6975C21.375 24.6975 20.943 24.4735 20.662 24.0305L20.667 24.0195ZM18.458 23.4575C18.458 24.0825 18.229 24.5985 17.765 24.9935C17.307 25.3945 16.697 25.5975 15.921 25.5975C15.197 25.5975 14.504 25.3685 13.822 24.9095L14.14 24.2745C14.723 24.5665 15.249 24.7125 15.729 24.7125C16.172 24.7125 16.521 24.6135 16.771 24.4205C17.021 24.2225 17.172 23.9465 17.172 23.5975C17.172 23.1595 16.865 22.7845 16.307 22.4725C15.791 22.1865 14.755 21.5975 14.755 21.5975C14.192 21.1865 13.916 20.7485 13.916 20.0245C13.916 19.4255 14.124 18.9465 14.541 18.5815C14.963 18.2065 15.499 18.0245 16.166 18.0245C16.8296 18.0187 17.4801 18.209 18.036 18.5715L17.75 19.2065C17.3032 19.0097 16.8212 18.9053 16.333 18.8995C15.953 18.8995 15.661 18.9935 15.458 19.1755C15.255 19.3575 15.13 19.5865 15.13 19.8735C15.13 20.3115 15.443 20.6865 16.015 21.0085C16.541 21.2945 17.598 21.8995 17.598 21.8995C18.176 22.3055 18.463 22.7435 18.463 23.4565L18.458 23.4575ZM30.964 15.6505C30.25 15.6345 29.698 15.7075 29.235 15.9055C29.105 15.9575 28.891 15.9575 28.87 16.1245C28.943 16.1975 28.953 16.3125 29.016 16.4105C29.125 16.5875 29.308 16.8275 29.48 16.9525C29.668 17.0985 29.855 17.2445 30.048 17.3695C30.397 17.5835 30.788 17.7085 31.131 17.9215C31.324 18.0465 31.522 18.2075 31.714 18.3385C31.813 18.4065 31.875 18.5265 32 18.5675V18.5415C31.937 18.4635 31.922 18.3485 31.859 18.2555C31.77 18.1665 31.682 18.0885 31.593 18.0005C31.3322 17.6542 31.0195 17.3503 30.666 17.0995C30.38 16.9065 29.755 16.6355 29.64 16.3075L29.624 16.2865C29.817 16.2705 30.046 16.1975 30.233 16.1455C30.535 16.0675 30.816 16.0825 31.129 16.0045C31.2726 15.9672 31.415 15.9255 31.556 15.8795V15.8015C31.395 15.6405 31.275 15.4215 31.108 15.2705C30.6478 14.8678 30.1566 14.502 29.639 14.1765C29.358 13.9945 29.004 13.8795 28.707 13.7285C28.603 13.6765 28.421 13.6505 28.363 13.5615C28.202 13.3635 28.108 13.1085 27.993 12.8735C27.7314 12.3651 27.4882 11.8474 27.264 11.3215C27.103 10.9725 27.009 10.6285 26.811 10.3055C25.894 8.78946 24.894 7.87346 23.363 6.97246C23.035 6.78446 22.639 6.70646 22.222 6.60746C21.998 6.59746 21.779 6.58146 21.555 6.57146C21.409 6.50846 21.269 6.34246 21.144 6.25846C20.634 5.93546 19.321 5.24246 18.951 6.15946C18.711 6.74246 19.305 7.31046 19.514 7.60246C19.665 7.81046 19.858 8.04046 19.967 8.26946C20.03 8.42546 20.045 8.58746 20.108 8.74846C20.249 9.13946 20.384 9.57646 20.572 9.94146C20.671 10.1295 20.775 10.3265 20.9 10.4935C20.973 10.5925 21.098 10.6345 21.124 10.7955C20.999 10.9775 20.989 11.2435 20.921 11.4625C20.598 12.4725 20.723 13.7175 21.176 14.4625C21.322 14.6865 21.66 15.1765 22.114 14.9885C22.515 14.8275 22.427 14.3215 22.541 13.8735C22.567 13.7645 22.551 13.6965 22.604 13.6235V13.6445C22.734 13.8945 22.859 14.1345 22.974 14.3845C23.245 14.8225 23.729 15.2755 24.13 15.5775C24.344 15.7385 24.51 16.0155 24.776 16.1135V16.0875H24.755C24.698 16.0095 24.625 15.9725 24.552 15.9105C24.3831 15.7432 24.2264 15.5641 24.083 15.3745C23.713 14.8745 23.38 14.3225 23.088 13.7545C22.9473 13.4738 22.8189 13.1872 22.703 12.8955C22.651 12.7915 22.651 12.6295 22.562 12.5775C22.427 12.7705 22.229 12.9365 22.135 13.1815C21.963 13.5615 21.947 14.0355 21.88 14.5255C21.849 14.5355 21.864 14.5255 21.849 14.5465C21.563 14.4735 21.464 14.1815 21.359 13.9315C21.088 13.2965 21.046 12.2805 21.276 11.5515C21.339 11.3635 21.604 10.7755 21.5 10.5985C21.443 10.4265 21.266 10.3275 21.172 10.1925C21.052 10.0255 20.932 9.81246 20.849 9.62446C20.635 9.12446 20.531 8.57246 20.297 8.07246C20.193 7.84346 20.005 7.60346 19.854 7.39046C19.682 7.15046 19.495 6.97946 19.364 6.69746C19.317 6.59846 19.255 6.43746 19.328 6.33246C19.344 6.25946 19.38 6.23346 19.453 6.21246C19.568 6.11346 19.901 6.23846 20.016 6.29546C20.344 6.42546 20.62 6.55046 20.896 6.73846C21.021 6.82746 21.156 6.99346 21.318 7.04046H21.506C21.792 7.10346 22.11 7.05646 22.376 7.13946C22.85 7.29046 23.277 7.50946 23.662 7.74846C24.8394 8.50426 25.7968 9.55692 26.438 10.8005C26.547 11.0035 26.594 11.1915 26.693 11.4045C26.875 11.8475 27.11 12.2895 27.297 12.7115C27.484 13.1335 27.662 13.5605 27.932 13.9095C28.067 14.0975 28.599 14.1955 28.843 14.2895C29.02 14.3725 29.296 14.4455 29.452 14.5395C29.759 14.7275 30.061 14.9405 30.348 15.1485C30.494 15.2475 30.937 15.4715 30.963 15.6485L30.964 15.6505Z" fill="black"/>
</g>
<defs>
<clipPath id="clip0_441_1101">
<rect width="32" height="32" fill="white" transform="translate(0 0.337402)"/>
</clipPath>
</defs>
</svg>
